<svg width="197" height="52" viewBox="0 0 197 52" fill="none" xmlns="http://www.w3.org/2000/svg">
<path d="M8.46018 8.46017L28.4772 13.8237L13.8237 28.4772L8.46018 8.46017Z" fill="#26CBFF"/>
<path d="M28.6487 43.3871L8.56474 38.28L23.0296 23.4403L28.6487 43.3871Z" fill="#26CBFF"/>
<path d="M56.2598 22.7773V27.0312H45.7656V22.7773H56.2598ZM47.2246 12.4062V38H42.0742V12.4062H47.2246ZM59.9863 12.4062V38H54.8887V12.4062H59.9863ZM63.3789 29.1406V27.8574C63.3789 26.3691 63.5547 25.0508 63.9062 23.9023C64.2695 22.7539 64.7852 21.793 65.4531 21.0195C66.1211 20.2344 66.9238 19.6426 67.8613 19.2441C68.8105 18.834 69.8711 18.6289 71.043 18.6289C72.2266 18.6289 73.2871 18.834 74.2246 19.2441C75.1738 19.6426 75.9824 20.2344 76.6504 21.0195C77.3301 21.793 77.8516 22.7539 78.2148 23.9023C78.5781 25.0508 78.7598 26.3691 78.7598 27.8574V29.1406C78.7598 30.6172 78.5781 31.9297 78.2148 33.0781C77.8516 34.2266 77.3301 35.1934 76.6504 35.9785C75.9824 36.7637 75.1797 37.3555 74.2422 37.7539C73.3047 38.1523 72.25 38.3516 71.0781 38.3516C69.9062 38.3516 68.8457 38.1523 67.8965 37.7539C66.959 37.3555 66.1504 36.7637 65.4707 35.9785C64.791 35.1934 64.2695 34.2266 63.9062 33.0781C63.5547 31.9297 63.3789 30.6172 63.3789 29.1406ZM68.3008 27.8574V29.1406C68.3008 30.0195 68.3594 30.7812 68.4766 31.4258C68.6055 32.0703 68.7871 32.6035 69.0215 33.0254C69.2676 33.4473 69.5605 33.7578 69.9004 33.957C70.2402 34.1562 70.6328 34.2559 71.0781 34.2559C71.5234 34.2559 71.9219 34.1562 72.2734 33.957C72.625 33.7578 72.9121 33.4473 73.1348 33.0254C73.3691 32.6035 73.5391 32.0703 73.6445 31.4258C73.7617 30.7812 73.8203 30.0195 73.8203 29.1406V27.8574C73.8203 27.002 73.7559 26.252 73.627 25.6074C73.498 24.9512 73.3164 24.418 73.082 24.0078C72.8477 23.5859 72.5547 23.2695 72.2031 23.0586C71.8633 22.8359 71.4766 22.7246 71.043 22.7246C70.6094 22.7246 70.2227 22.8359 69.8828 23.0586C69.5547 23.2695 69.2676 23.5859 69.0215 24.0078C68.7871 24.418 68.6055 24.9512 68.4766 25.6074C68.3594 26.252 68.3008 27.002 68.3008 27.8574ZM86.8281 22.918V38H81.8887V18.9805H86.5293L86.8281 22.918ZM86.125 27.8398L84.7715 27.875C84.748 26.5391 84.8652 25.3086 85.123 24.1836C85.3809 23.0586 85.7676 22.0801 86.2832 21.248C86.8105 20.416 87.4727 19.7715 88.2695 19.3145C89.0664 18.8574 89.998 18.6289 91.0645 18.6289C91.7559 18.6289 92.3945 18.7578 92.9805 19.0156C93.5664 19.2617 94.0762 19.6543 94.5098 20.1934C94.9434 20.7207 95.2773 21.4121 95.5117 22.2676C95.7461 23.1113 95.8633 24.125 95.8633 25.3086V38H90.9414V25.9062C90.9414 25.0625 90.8594 24.418 90.6953 23.9727C90.5312 23.5156 90.2969 23.1992 89.9922 23.0234C89.6875 22.8359 89.3125 22.7422 88.8672 22.7422C88.3984 22.7422 87.9883 22.8711 87.6367 23.1289C87.2852 23.3867 86.998 23.75 86.7754 24.2188C86.5645 24.6758 86.4004 25.2148 86.2832 25.8359C86.1777 26.457 86.125 27.125 86.125 27.8398ZM95.3887 27.3477L93.6133 27.5762C93.5898 26.3223 93.7012 25.1562 93.9473 24.0781C94.1934 22.9883 94.5742 22.0391 95.0898 21.2305C95.6055 20.4102 96.25 19.7715 97.0234 19.3145C97.8086 18.8574 98.7168 18.6289 99.748 18.6289C100.521 18.6289 101.225 18.7578 101.857 19.0156C102.49 19.2734 103.029 19.6895 103.475 20.2637C103.932 20.8262 104.277 21.5703 104.512 22.4961C104.758 23.4219 104.881 24.5469 104.881 25.8711V38H99.9414V25.8887C99.9414 25.0332 99.8594 24.377 99.6953 23.9199C99.5312 23.4629 99.2969 23.1523 98.9922 22.9883C98.6875 22.8242 98.3242 22.7422 97.9023 22.7422C97.4805 22.7422 97.1113 22.8594 96.7949 23.0938C96.4902 23.3281 96.2324 23.6562 96.0215 24.0781C95.8105 24.4883 95.6523 24.9746 95.5469 25.5371C95.4414 26.0879 95.3887 26.6914 95.3887 27.3477ZM116.254 38.3516C114.953 38.3516 113.799 38.1523 112.791 37.7539C111.795 37.3555 110.951 36.7812 110.26 36.0312C109.568 35.2695 109.041 34.3496 108.678 33.2715C108.314 32.1934 108.133 30.9629 108.133 29.5801V28.0156C108.133 26.4688 108.309 25.1152 108.66 23.9551C109.012 22.7832 109.51 21.7988 110.154 21.002C110.799 20.2051 111.59 19.6133 112.527 19.2266C113.477 18.8281 114.549 18.6289 115.744 18.6289C116.939 18.6289 117.988 18.8281 118.891 19.2266C119.805 19.6133 120.561 20.1992 121.158 20.9844C121.756 21.7578 122.207 22.7188 122.512 23.8672C122.816 25.0156 122.969 26.3516 122.969 27.875V30.125H110.225V26.6621H118.135V26.2227C118.135 25.4492 118.053 24.8047 117.889 24.2891C117.725 23.7617 117.467 23.3691 117.115 23.1113C116.764 22.8535 116.295 22.7246 115.709 22.7246C115.217 22.7246 114.801 22.8242 114.461 23.0234C114.121 23.2227 113.852 23.5332 113.652 23.9551C113.453 24.377 113.307 24.9277 113.213 25.6074C113.119 26.2754 113.072 27.0781 113.072 28.0156V29.5801C113.072 30.459 113.148 31.1973 113.301 31.7949C113.453 32.3809 113.676 32.8613 113.969 33.2363C114.273 33.5996 114.643 33.8633 115.076 34.0273C115.51 34.1797 116.014 34.2559 116.588 34.2559C117.455 34.2559 118.234 34.1035 118.926 33.7988C119.629 33.4824 120.227 33.0547 120.719 32.5156L122.688 35.5039C122.348 35.9492 121.879 36.3945 121.281 36.8398C120.684 37.2852 119.969 37.6484 119.137 37.9297C118.305 38.2109 117.344 38.3516 116.254 38.3516Z" fill="white"/>
<path d="M135.889 31.127C135.959 30.5996 135.941 30.1426 135.836 29.7559C135.742 29.3691 135.566 29.0293 135.309 28.7363C135.062 28.4316 134.758 28.1621 134.395 27.9277C134.031 27.6816 133.621 27.4531 133.164 27.2422C132.32 26.832 131.535 26.3809 130.809 25.8887C130.082 25.3965 129.438 24.8398 128.875 24.2188C128.324 23.5977 127.908 22.8887 127.627 22.0918C127.346 21.2832 127.24 20.375 127.311 19.3672C127.393 18.2188 127.686 17.1875 128.189 16.2734C128.693 15.3594 129.35 14.5859 130.158 13.9531C130.967 13.3086 131.875 12.8281 132.883 12.5117C133.891 12.1836 134.945 12.0313 136.047 12.0547C137.582 12.0898 138.871 12.4648 139.914 13.1797C140.957 13.8828 141.73 14.8262 142.234 16.0098C142.75 17.1816 142.984 18.5 142.938 19.9648L137.928 19.9473C137.963 19.3848 137.928 18.8164 137.822 18.2422C137.729 17.668 137.506 17.1992 137.154 16.8359C136.814 16.4609 136.293 16.2676 135.59 16.2559C134.969 16.2559 134.424 16.3965 133.955 16.6777C133.486 16.9473 133.105 17.3164 132.812 17.7852C132.52 18.2539 132.332 18.7812 132.25 19.3672C132.191 19.8242 132.238 20.2344 132.391 20.5977C132.555 20.9609 132.777 21.2891 133.059 21.582C133.352 21.8633 133.68 22.1211 134.043 22.3555C134.406 22.5898 134.77 22.7832 135.133 22.9355C136.012 23.3809 136.82 23.8496 137.559 24.3418C138.309 24.834 138.941 25.4023 139.457 26.0469C139.984 26.6797 140.365 27.4121 140.6 28.2441C140.846 29.0762 140.934 30.0254 140.863 31.0918C140.77 32.2754 140.482 33.3184 140.002 34.2207C139.533 35.123 138.912 35.8906 138.139 36.5234C137.365 37.1445 136.48 37.6133 135.484 37.9297C134.488 38.2461 133.422 38.3926 132.285 38.3691C131.066 38.334 129.977 38.1055 129.016 37.6836C128.055 37.25 127.246 36.6582 126.59 35.9082C125.945 35.1465 125.465 34.2559 125.148 33.2363C124.832 32.2051 124.709 31.0977 124.779 29.9141L129.789 29.9316C129.754 30.4824 129.76 31.0156 129.807 31.5312C129.854 32.0469 129.982 32.498 130.193 32.8848C130.404 33.2715 130.709 33.582 131.107 33.8164C131.506 34.0508 132.033 34.168 132.689 34.168C133.311 34.168 133.844 34.0391 134.289 33.7812C134.734 33.5117 135.092 33.1484 135.361 32.6914C135.631 32.2344 135.807 31.7129 135.889 31.127ZM148 32.7441L153.555 18.9805H156.666L154.891 24.9219L149.494 38H146.893L148 32.7441ZM149.459 18.9805L149.23 33.2188L148.369 38H145.504L144.924 18.9805H149.459ZM156.719 32.4629L161.148 18.9805H165.877L158.723 38H155.717L156.719 32.4629ZM157.018 18.9805L157.826 33.1309L157.193 38H154.732L153.836 24.4824L154.135 18.9805H157.018ZM173.225 18.9805L169.902 38H165.104L168.408 18.9805H173.225ZM169.041 14.1465C169.029 13.3848 169.27 12.7402 169.762 12.2129C170.254 11.6855 170.887 11.416 171.66 11.4043C172.41 11.3926 173.031 11.627 173.523 12.1074C174.016 12.5879 174.256 13.209 174.244 13.9707C174.268 14.7207 174.033 15.3594 173.541 15.8867C173.061 16.4141 172.428 16.6836 171.643 16.6953C170.904 16.7188 170.289 16.4902 169.797 16.0098C169.305 15.5176 169.053 14.8965 169.041 14.1465ZM179.588 38H174.807L178.305 17.3281C178.48 16.0391 178.844 14.8848 179.395 13.8652C179.957 12.8457 180.719 12.0371 181.68 11.4395C182.641 10.8418 183.807 10.5547 185.178 10.5781C185.576 10.5781 185.963 10.6133 186.338 10.6836C186.725 10.7539 187.111 10.8359 187.498 10.9297L187.076 14.8848C186.889 14.8379 186.695 14.7969 186.496 14.7617C186.297 14.7266 186.104 14.709 185.916 14.709C185.377 14.709 184.914 14.8262 184.527 15.0605C184.152 15.2949 183.854 15.6113 183.631 16.0098C183.408 16.3965 183.244 16.8359 183.139 17.3281L179.588 38ZM185.793 18.9805L185.143 22.6895H175.211L175.844 18.9805H185.793ZM196.516 18.9805L195.848 22.6895H186.408L187.076 18.9805H196.516ZM190.064 14.2871H194.846L191.787 32.252C191.752 32.5566 191.734 32.8496 191.734 33.1309C191.734 33.4121 191.799 33.6465 191.928 33.834C192.068 34.0215 192.326 34.1211 192.701 34.1328C192.9 34.1328 193.094 34.1211 193.281 34.0977C193.48 34.0742 193.68 34.0449 193.879 34.0098L193.492 37.8945C193.082 38.0469 192.666 38.1582 192.244 38.2285C191.822 38.2988 191.389 38.3281 190.943 38.3164C189.854 38.3047 189.004 38.0352 188.395 37.5078C187.785 36.9805 187.369 36.2949 187.146 35.4512C186.924 34.6074 186.859 33.6992 186.953 32.7266L190.064 14.2871Z" fill="#FF8E26"/>
</svg>
